<svg width="166" height="100" viewBox="0 0 166 100" fill="none" xmlns="http://www.w3.org/2000/svg">
<path d="M0 0H12.9362V66.6078H0V0Z" fill="#005F99"/>
<path d="M21.1934 38.8087V27.7991H64.6811V38.8087H21.1934Z" fill="white"/>
<path d="M21.1934 66.6078V55.323H64.6811V66.6078H21.1934Z" fill="white"/>
<path d="M21.1934 11.2848V0H64.6811V11.2848H21.1934Z" fill="white"/>
<path d="M127.26 16.449C131.593 8.26075 139.903 2.52121 149.614 1.00977C151.183 0.765466 154.897 0.596674 159.082 0.579202L165.969 0.550478V11.7479L159.082 11.8697C152.603 11.984 152.055 12.0376 149.826 12.7752C144.869 14.4149 141.291 17.4102 139.055 21.7908C135.545 28.669 135.487 38.395 138.912 45.5367C140.35 48.5335 143.613 51.8498 146.604 53.3542C150.031 55.0779 151.93 55.4057 159.378 55.5588L165.969 55.6945V66.883L159.823 66.8807C149.857 66.8765 145.991 66.2011 140.347 63.477C135.34 61.0609 131.821 58.0937 128.964 53.8816C122.145 43.8277 121.403 27.5167 127.26 16.449Z" fill="#005F99"/>
<path d="M72.6631 12.0995V0.793895L81.4753 0.91738C89.8047 1.03405 90.4436 1.08292 93.1368 1.80517C105.362 5.08478 113.378 14.1303 115.467 27.003C116.03 30.4739 116.033 37.2386 115.472 40.692C113.437 53.2354 105.214 62.4293 93.2393 65.5478C89.3702 66.5552 85.9566 66.8662 78.6613 66.8754L72.6631 66.883V55.3341H79.6056C87.5464 55.3341 89.3287 55.0581 92.648 53.3154C96.5879 51.2463 99.8951 47.3668 101.405 43.0418C103.273 37.6938 103.346 29.5446 101.571 24.5934C99.414 18.5793 94.7233 14.2046 88.8103 12.6926C86.8142 12.1824 85.5245 12.0995 79.5766 12.0995H72.6631Z" fill="#005F99"/>
<path d="M0.231201 75.4155H5.74699C6.31948 75.4155 6.84244 75.4925 7.31585 75.6467C7.80027 75.8008 8.21313 76.021 8.55442 76.3072C8.90673 76.5825 9.17647 76.9183 9.36363 77.3146C9.5618 77.6999 9.66088 78.1293 9.66088 78.6027C9.66088 79.1202 9.52327 79.5936 9.24803 80.0229C8.9838 80.4413 8.63149 80.7771 8.19111 81.0303C8.73058 81.2835 9.17096 81.6303 9.51226 82.0707C9.86456 82.5111 10.0407 83.0231 10.0407 83.6066C10.0407 84.113 9.94163 84.5754 9.74346 84.9938C9.54528 85.4011 9.26454 85.7534 8.90123 86.0507C8.54892 86.3479 8.12505 86.5791 7.62962 86.7443C7.1452 86.8984 6.60573 86.9755 6.01122 86.9755H0.231201V75.4155ZM5.58184 77.4963H2.75789V80.1055H5.05339C5.30661 80.1055 5.55432 80.089 5.79653 80.056C6.04975 80.0229 6.27545 79.9624 6.47362 79.8743C6.67179 79.7862 6.83143 79.6596 6.95253 79.4945C7.07364 79.3183 7.13419 79.0871 7.13419 78.8009C7.13419 78.4045 6.98556 78.0908 6.6883 77.8596C6.40206 77.6174 6.03324 77.4963 5.58184 77.4963ZM5.81305 84.8947C6.30848 84.8947 6.71032 84.7681 7.01859 84.5148C7.32686 84.2616 7.48099 83.9148 7.48099 83.4744C7.48099 83.0451 7.32686 82.7038 7.01859 82.4506C6.71032 82.1973 6.30848 82.0707 5.81305 82.0707H2.75789V84.8947H5.81305Z" fill="white"/>
<path d="M33.4125 81.1955C33.4125 82.0212 33.2529 82.7974 32.9336 83.524C32.6253 84.2506 32.1959 84.8837 31.6455 85.4231C31.106 85.9626 30.4674 86.3865 29.7298 86.6947C28.9922 87.003 28.194 87.1571 27.3352 87.1571C26.5205 87.1571 25.7443 87.014 25.0067 86.7278C24.2691 86.4305 23.6195 86.0232 23.058 85.5057C22.5075 84.9772 22.0671 84.3497 21.7369 83.6231C21.4066 82.8854 21.2414 82.0762 21.2414 81.1955C21.2414 80.3918 21.3901 79.6321 21.6873 78.9165C21.9956 78.1899 22.4195 77.5568 22.9589 77.0173C23.4984 76.4669 24.1424 76.032 24.8911 75.7127C25.6397 75.3934 26.4545 75.2338 27.3352 75.2338C28.1499 75.2338 28.9206 75.3824 29.6472 75.6797C30.3849 75.9769 31.0289 76.3898 31.5794 76.9183C32.1409 77.4467 32.5868 78.0743 32.9171 78.8009C33.2474 79.5275 33.4125 80.3257 33.4125 81.1955ZM30.8197 81.1955C30.8197 80.678 30.7262 80.1991 30.539 79.7587C30.3628 79.3073 30.1151 78.922 29.7959 78.6027C29.4876 78.2724 29.1188 78.0137 28.6894 77.8265C28.271 77.6394 27.8196 77.5458 27.3352 77.5458C26.8838 77.5458 26.4434 77.6339 26.0141 77.81C25.5957 77.9752 25.2214 78.2174 24.8911 78.5367C24.5718 78.8449 24.3131 79.2248 24.1149 79.6762C23.9278 80.1275 23.8342 80.634 23.8342 81.1955C23.8342 81.6909 23.9168 82.1588 24.0819 82.5992C24.247 83.0396 24.4837 83.4249 24.792 83.7552C25.1003 84.0855 25.4691 84.3497 25.8985 84.5479C26.3278 84.746 26.8068 84.8451 27.3352 84.8451C27.7976 84.8451 28.238 84.7571 28.6564 84.5809C29.0747 84.4047 29.4435 84.157 29.7628 83.8378C30.0821 83.5185 30.3353 83.1386 30.5225 82.6983C30.7207 82.2469 30.8197 81.7459 30.8197 81.1955Z" fill="white"/>
<path d="M56.7551 81.1955C56.7551 82.0212 56.5955 82.7974 56.2762 83.524C55.9679 84.2506 55.5386 84.8837 54.9881 85.4231C54.4486 85.9626 53.8101 86.3865 53.0724 86.6947C52.3348 87.003 51.5366 87.1571 50.6778 87.1571C49.8631 87.1571 49.087 87.014 48.3493 86.7278C47.6117 86.4305 46.9621 86.0232 46.4006 85.5057C45.8502 84.9772 45.4098 84.3497 45.0795 83.6231C44.7492 82.8854 44.5841 82.0762 44.5841 81.1955C44.5841 80.3918 44.7327 79.6321 45.0299 78.9165C45.3382 78.1899 45.7621 77.5568 46.3015 77.0173C46.841 76.4669 47.4851 76.032 48.2337 75.7127C48.9824 75.3934 49.7971 75.2338 50.6778 75.2338C51.4925 75.2338 52.2632 75.3824 52.9898 75.6797C53.7275 75.9769 54.3715 76.3898 54.922 76.9183C55.4835 77.4467 55.9294 78.0743 56.2597 78.8009C56.59 79.5275 56.7551 80.3257 56.7551 81.1955ZM54.1624 81.1955C54.1624 80.678 54.0688 80.1991 53.8816 79.7587C53.7055 79.3073 53.4578 78.922 53.1385 78.6027C52.8302 78.2724 52.4614 78.0137 52.032 77.8265C51.6137 77.6394 51.1623 77.5458 50.6778 77.5458C50.2264 77.5458 49.7861 77.6339 49.3567 77.81C48.9383 77.9752 48.564 78.2174 48.2337 78.5367C47.9144 78.8449 47.6557 79.2248 47.4575 79.6762C47.2704 80.1275 47.1768 80.634 47.1768 81.1955C47.1768 81.6909 47.2594 82.1588 47.4245 82.5992C47.5897 83.0396 47.8264 83.4249 48.1346 83.7552C48.4429 84.0855 48.8117 84.3497 49.2411 84.5479C49.6705 84.746 50.1494 84.8451 50.6778 84.8451C51.1402 84.8451 51.5806 84.7571 51.999 84.5809C52.4174 84.4047 52.7862 84.157 53.1054 83.8378C53.4247 83.5185 53.6779 83.1386 53.8651 82.6983C54.0633 82.2469 54.1624 81.7459 54.1624 81.1955Z" fill="white"/>
<path d="M66.9682 77.6449V75.4155H77.141V77.6449H73.3262V86.9755H70.7995V77.6449H66.9682Z" fill="white"/>
<path d="M93.5763 84.8121C94.7653 84.8121 95.7562 84.3222 96.5489 83.3423C96.8351 83.6176 97.1103 83.8928 97.3746 84.168C97.6498 84.4323 97.9305 84.702 98.2168 84.9772C97.6443 85.6598 96.9342 86.1938 96.0864 86.5791C95.2387 86.9535 94.3745 87.1406 93.4937 87.1406C92.646 87.1406 91.8478 86.992 91.0991 86.6947C90.3615 86.3975 89.7119 85.9846 89.1504 85.4562C88.6 84.9277 88.1596 84.3002 87.8293 83.5735C87.51 82.8469 87.3504 82.0542 87.3504 81.1955C87.3504 80.3808 87.5045 79.6101 87.8128 78.8835C88.121 78.1568 88.5449 77.5238 89.0844 76.9843C89.6348 76.4448 90.2844 76.021 91.0331 75.7127C91.7927 75.3934 92.6129 75.2338 93.4937 75.2338C93.9561 75.2338 94.413 75.2888 94.8644 75.3989C95.3268 75.498 95.7617 75.6411 96.169 75.8283C96.5874 76.0155 96.9782 76.2467 97.3415 76.5219C97.7048 76.7861 98.0186 77.0889 98.2829 77.4302C97.9966 77.7164 97.7104 77.9972 97.4241 78.2724C97.1489 78.5367 96.8681 78.8119 96.5819 79.0981C96.1965 78.6137 95.7341 78.2339 95.1947 77.9587C94.6662 77.6834 94.0992 77.5458 93.4937 77.5458C93.0093 77.5458 92.5524 77.6339 92.123 77.81C91.6936 77.9862 91.3193 78.2394 91 78.5697C90.6808 78.889 90.422 79.2743 90.2239 79.7257C90.0367 80.1661 89.9431 80.656 89.9431 81.1955C89.9431 81.6909 90.0312 82.1588 90.2073 82.5992C90.3835 83.0396 90.6312 83.4249 90.9505 83.7552C91.2808 84.0855 91.6661 84.3442 92.1065 84.5314C92.5579 84.7185 93.0478 84.8121 93.5763 84.8121Z" fill="white"/>
<path d="M108.419 86.9755L113.126 75.4155H116.032L120.673 86.9755H117.948L116.825 84.0194H112.184L111.061 86.9755H108.419ZM112.96 82.0047H116.082L114.529 77.8926L112.96 82.0047Z" fill="white"/>
<path d="M137.837 86.1498L133.907 78.6357V86.9755H131.578V75.4155H134.798L137.854 81.4267L140.925 75.4155H144.146V86.9755H141.751V78.6688L137.837 86.1498Z" fill="white"/>
<path d="M156.163 86.9755V75.4155H161.992C162.554 75.4155 163.071 75.509 163.545 75.6962C164.018 75.8723 164.425 76.1256 164.767 76.4559C165.119 76.7751 165.389 77.1605 165.576 77.6119C165.774 78.0633 165.873 78.5587 165.873 79.0981C165.873 79.6266 165.774 80.111 165.576 80.5514C165.389 80.9918 165.119 81.3771 164.767 81.7074C164.425 82.0267 164.018 82.2744 163.545 82.4506C163.071 82.6267 162.554 82.7148 161.992 82.7148H158.689V86.9755H156.163ZM161.695 77.5788H158.689V80.6175H161.117C161.403 80.6175 161.678 80.601 161.943 80.5679C162.218 80.5239 162.455 80.4468 162.653 80.3367C162.862 80.2266 163.027 80.078 163.148 79.8908C163.269 79.6927 163.33 79.4339 163.33 79.1147C163.33 78.6523 163.181 78.2834 162.884 78.0082C162.587 77.7219 162.19 77.5788 161.695 77.5788Z" fill="white"/>
<path d="M2.74138 98.6148C2.98359 98.6148 3.21039 98.5641 3.42177 98.4629C3.63315 98.3616 3.81811 98.2118 3.97665 98.0137C4.07794 98.1105 4.17482 98.2074 4.2673 98.3043C4.36419 98.3968 4.46107 98.4915 4.55796 98.5884C4.44346 98.7205 4.31575 98.8394 4.17482 98.9451C4.0339 99.0464 3.88197 99.1344 3.71903 99.2093C3.56049 99.2798 3.39535 99.3326 3.2236 99.3678C3.05185 99.4075 2.8801 99.4273 2.70835 99.4273C2.36926 99.4273 2.05218 99.3678 1.75712 99.2489C1.46207 99.13 1.20445 98.9649 0.984254 98.7535C0.768467 98.5421 0.596718 98.2911 0.469007 98.0005C0.341296 97.7098 0.277441 97.3927 0.277441 97.0492C0.277441 96.7233 0.336892 96.4151 0.455796 96.1244C0.579103 95.8338 0.74865 95.5806 0.964437 95.3648C1.18463 95.149 1.44225 94.9794 1.73731 94.8561C2.03236 94.7284 2.35604 94.6646 2.70835 94.6646C3.07387 94.6646 3.42177 94.7394 3.75206 94.8892C4.08675 95.0389 4.36419 95.2459 4.58438 95.5101L3.98986 96.1046C3.83133 95.9064 3.63976 95.7523 3.41516 95.6422C3.19497 95.5321 2.95937 95.4771 2.70835 95.4771C2.49697 95.4771 2.2988 95.5167 2.11383 95.596C1.92887 95.6752 1.76813 95.7853 1.63162 95.9262C1.4951 96.0628 1.3872 96.2279 1.30794 96.4217C1.22867 96.6154 1.18903 96.8246 1.18903 97.0492C1.18903 97.265 1.22646 97.4676 1.30133 97.657C1.3806 97.8463 1.48849 98.0137 1.62501 98.159C1.76153 98.2999 1.92447 98.4122 2.11383 98.4959C2.3032 98.5751 2.51238 98.6148 2.74138 98.6148Z" fill="white"/>
<path d="M10.5473 97.0492C10.5473 97.3795 10.4857 97.69 10.3624 97.9806C10.2391 98.2713 10.0695 98.5245 9.85374 98.7403C9.63795 98.9561 9.38253 99.1256 9.08747 99.2489C8.79682 99.3722 8.48195 99.4339 8.14286 99.4339C7.81697 99.4339 7.50871 99.3744 7.21805 99.2555C6.9274 99.1366 6.67198 98.9715 6.45179 98.7601C6.236 98.5487 6.06425 98.2977 5.93654 98.0071C5.80883 97.712 5.74497 97.3927 5.74497 97.0492C5.74497 96.7277 5.80443 96.4217 5.92333 96.131C6.04223 95.8404 6.20738 95.5872 6.41876 95.3714C6.63455 95.1556 6.88777 94.9838 7.17842 94.8561C7.47347 94.7284 7.79495 94.6646 8.14286 94.6646C8.46433 94.6646 8.7704 94.724 9.06105 94.8429C9.35611 94.9618 9.61153 95.1292 9.82732 95.3449C10.0475 95.5563 10.2215 95.8074 10.3492 96.098C10.4813 96.3887 10.5473 96.7057 10.5473 97.0492ZM9.63575 97.0492C9.63575 96.829 9.59612 96.6243 9.51685 96.4349C9.44198 96.2411 9.33849 96.0738 9.20638 95.9329C9.07426 95.7919 8.91573 95.6818 8.73077 95.6026C8.55021 95.5189 8.35424 95.4771 8.14286 95.4771C7.94468 95.4771 7.75532 95.5145 7.57476 95.5894C7.39421 95.6642 7.23567 95.7721 7.09915 95.913C6.96263 96.0496 6.85254 96.2147 6.76886 96.4085C6.68959 96.6022 6.64996 96.8158 6.64996 97.0492C6.64996 97.265 6.68519 97.4698 6.75565 97.6636C6.83052 97.8529 6.93401 98.0181 7.06612 98.159C7.19824 98.2999 7.35457 98.4122 7.53513 98.4959C7.72009 98.5796 7.92266 98.6214 8.14286 98.6214C8.34103 98.6214 8.53039 98.584 8.71095 98.5091C8.89151 98.4298 9.05004 98.3219 9.18656 98.1854C9.32308 98.0445 9.43097 97.8793 9.51024 97.69C9.59392 97.4962 9.63575 97.2826 9.63575 97.0492Z" fill="white"/>
<path d="M12.1197 99.3612V94.7372H13.0048V98.5818H15.515V99.3612H12.1197Z" fill="white"/>
<path d="M17.0839 99.3612V94.7372H17.969V98.5818H20.4792V99.3612H17.0839Z" fill="white"/>
<path d="M22.0481 99.3612V94.7372H25.5029V95.5035H22.9332V96.6529H24.6639V97.3993H22.9332V98.595H25.5293V99.3612H22.0481Z" fill="white"/>
<path d="M31.3824 97.0757C31.3824 97.3971 31.3273 97.701 31.2172 97.9872C31.1072 98.2735 30.9508 98.5245 30.7482 98.7403C30.5457 98.9517 30.3035 99.1212 30.0216 99.2489C29.7442 99.3722 29.4359 99.4339 29.0968 99.4339C28.7621 99.4339 28.4472 99.3744 28.1522 99.2555C27.8615 99.1322 27.6061 98.9649 27.3859 98.7535C27.1657 98.5377 26.9918 98.2845 26.8641 97.9939C26.7364 97.7032 26.6725 97.3883 26.6725 97.0492C26.6725 96.7277 26.732 96.4239 26.8509 96.1376C26.9742 95.847 27.1415 95.5938 27.3529 95.378C27.5687 95.1578 27.8241 94.9838 28.1192 94.8561C28.4142 94.7284 28.7357 94.6646 29.0836 94.6646C29.4579 94.6646 29.8102 94.7394 30.1405 94.8892C30.4752 95.0389 30.7548 95.2459 30.9794 95.5101C30.8782 95.607 30.7747 95.7039 30.669 95.8007C30.5677 95.8932 30.4664 95.9857 30.3651 96.0782C30.2066 95.8888 30.015 95.7413 29.7904 95.6356C29.5702 95.5299 29.3346 95.4771 29.0836 95.4771C28.8722 95.4771 28.674 95.5167 28.4891 95.596C28.3085 95.6752 28.15 95.7853 28.0135 95.9262C27.8814 96.0672 27.7757 96.2345 27.6964 96.4283C27.6215 96.6177 27.5841 96.8246 27.5841 97.0492C27.5841 97.2694 27.6215 97.4764 27.6964 97.6702C27.7713 97.8595 27.8769 98.0269 28.0135 98.1722C28.15 98.3131 28.3107 98.4254 28.4957 98.5091C28.6806 98.5928 28.8854 98.6346 29.11 98.6346C29.2774 98.6346 29.4337 98.6104 29.579 98.5619C29.7288 98.5091 29.8609 98.4364 29.9754 98.3439C30.0943 98.2471 30.1934 98.1326 30.2726 98.0005C30.3563 97.8683 30.4136 97.723 30.4444 97.5645H29.0704V96.7916H31.3824V97.0757Z" fill="white"/>
<path d="M32.957 99.3612V94.7372H36.4118V95.5035H33.8422V96.6529H35.5729V97.3993H33.8422V98.595H36.4383V99.3612H32.957Z" fill="white"/>
<path d="M44.8775 97.0492C44.8775 97.3795 44.8158 97.69 44.6925 97.9806C44.5692 98.2713 44.3997 98.5245 44.1839 98.7403C43.9681 98.9561 43.7127 99.1256 43.4176 99.2489C43.127 99.3722 42.8121 99.4339 42.473 99.4339C42.1471 99.4339 41.8389 99.3744 41.5482 99.2555C41.2575 99.1366 41.0021 98.9715 40.7819 98.7601C40.5662 98.5487 40.3944 98.2977 40.2667 98.0071C40.139 97.712 40.0751 97.3927 40.0751 97.0492C40.0751 96.7277 40.1346 96.4217 40.2535 96.131C40.3724 95.8404 40.5375 95.5872 40.7489 95.3714C40.9647 95.1556 41.2179 94.9838 41.5086 94.8561C41.8036 94.7284 42.1251 94.6646 42.473 94.6646C42.7945 94.6646 43.1005 94.724 43.3912 94.8429C43.6863 94.9618 43.9417 95.1292 44.1575 95.3449C44.3777 95.5563 44.5516 95.8074 44.6793 96.098C44.8114 96.3887 44.8775 96.7057 44.8775 97.0492ZM43.9659 97.0492C43.9659 96.829 43.9263 96.6243 43.847 96.4349C43.7721 96.2411 43.6686 96.0738 43.5365 95.9329C43.4044 95.7919 43.2459 95.6818 43.0609 95.6026C42.8804 95.5189 42.6844 95.4771 42.473 95.4771C42.2748 95.4771 42.0855 95.5145 41.9049 95.5894C41.7244 95.6642 41.5658 95.7721 41.4293 95.913C41.2928 96.0496 41.1827 96.2147 41.099 96.4085C41.0197 96.6022 40.9801 96.8158 40.9801 97.0492C40.9801 97.265 41.0153 97.4698 41.0858 97.6636C41.1607 97.8529 41.2642 98.0181 41.3963 98.159C41.5284 98.2999 41.6847 98.4122 41.8653 98.4959C42.0502 98.5796 42.2528 98.6214 42.473 98.6214C42.6712 98.6214 42.8605 98.584 43.0411 98.5091C43.2217 98.4298 43.3802 98.3219 43.5167 98.1854C43.6532 98.0445 43.7611 97.8793 43.8404 97.69C43.9241 97.4962 43.9659 97.2826 43.9659 97.0492Z" fill="white"/>
<path d="M46.4498 99.3612V94.7372H49.9178V95.5035H47.335V96.6859H49.0789V97.4324H47.335V99.3612H46.4498Z" fill="white"/>
<path d="M53.7011 99.3612V94.7372H57.1559V95.5035H54.5863V96.6529H56.317V97.3993H54.5863V98.595H57.1823V99.3612H53.7011Z" fill="white"/>
<path d="M58.775 94.7372H59.6337L61.9722 97.8815V94.7372H62.8045V99.3612H62.0184L59.6073 96.1244L59.6139 99.3612H58.775V94.7372Z" fill="white"/>
<path d="M69.0898 97.0757C69.0898 97.3971 69.0348 97.701 68.9247 97.9872C68.8146 98.2735 68.6582 98.5245 68.4557 98.7403C68.2531 98.9517 68.0109 99.1212 67.729 99.2489C67.4516 99.3722 67.1433 99.4339 66.8042 99.4339C66.4696 99.4339 66.1547 99.3744 65.8596 99.2555C65.569 99.1322 65.3136 98.9649 65.0934 98.7535C64.8732 98.5377 64.6992 98.2845 64.5715 97.9939C64.4438 97.7032 64.3799 97.3883 64.3799 97.0492C64.3799 96.7277 64.4394 96.4239 64.5583 96.1376C64.6816 95.847 64.8489 95.5938 65.0603 95.378C65.2761 95.1578 65.5315 94.9838 65.8266 94.8561C66.1217 94.7284 66.4431 94.6646 66.791 94.6646C67.1654 94.6646 67.5177 94.7394 67.8479 94.8892C68.1826 95.0389 68.4623 95.2459 68.6869 95.5101C68.5856 95.607 68.4821 95.7039 68.3764 95.8007C68.2751 95.8932 68.1738 95.9857 68.0725 96.0782C67.914 95.8888 67.7224 95.7413 67.4978 95.6356C67.2776 95.5299 67.0421 95.4771 66.791 95.4771C66.5797 95.4771 66.3815 95.5167 66.1965 95.596C66.016 95.6752 65.8574 95.7853 65.7209 95.9262C65.5888 96.0672 65.4831 96.2345 65.4038 96.4283C65.329 96.6177 65.2915 96.8246 65.2915 97.0492C65.2915 97.2694 65.329 97.4764 65.4038 97.6702C65.4787 97.8595 65.5844 98.0269 65.7209 98.1722C65.8574 98.3131 66.0182 98.4254 66.2031 98.5091C66.3881 98.5928 66.5929 98.6346 66.8175 98.6346C66.9848 98.6346 67.1411 98.6104 67.2865 98.5619C67.4362 98.5091 67.5683 98.4364 67.6828 98.3439C67.8017 98.2471 67.9008 98.1326 67.9801 98.0005C68.0637 97.8683 68.121 97.723 68.1518 97.5645H66.7778V96.7916H69.0898V97.0757Z" fill="white"/>
<path d="M70.6645 99.3612V94.7372H71.5496V99.3612H70.6645Z" fill="white"/>
<path d="M73.3128 94.7372H74.1715L76.51 97.8815V94.7372H77.3423V99.3612H76.5562L74.1451 96.1244L74.1517 99.3612H73.3128V94.7372Z" fill="white"/>
<path d="M79.1027 99.3612V94.7372H82.5575V95.5035H79.9879V96.6529H81.7186V97.3993H79.9879V98.595H82.5839V99.3612H79.1027Z" fill="white"/>
<path d="M84.1766 99.3612V94.7372H87.6314V95.5035H85.0618V96.6529H86.7925V97.3993H85.0618V98.595H87.6578V99.3612H84.1766Z" fill="white"/>
<path d="M89.2505 99.3612V94.7372H91.4304C91.655 94.7372 91.8619 94.7724 92.0513 94.8429C92.2451 94.909 92.4102 95.0059 92.5467 95.1336C92.6877 95.2569 92.7977 95.4066 92.877 95.5828C92.9563 95.7545 92.9959 95.9461 92.9959 96.1574C92.9959 96.4525 92.9123 96.7145 92.7449 96.9435C92.582 97.1681 92.364 97.3311 92.0909 97.4324C92.2583 97.7538 92.4256 98.0753 92.593 98.3968C92.7603 98.7183 92.9277 99.0398 93.095 99.3612H92.1108C91.9566 99.0574 91.8047 98.7579 91.655 98.4629C91.5096 98.1634 91.3621 97.8617 91.2124 97.5579H90.1356V99.3612H89.2505ZM91.3511 95.4969H90.1356V96.8378H91.1793C91.3071 96.8378 91.426 96.8268 91.5361 96.8048C91.6506 96.7828 91.7496 96.7454 91.8333 96.6925C91.917 96.6397 91.983 96.5714 92.0315 96.4877C92.0799 96.3997 92.1041 96.294 92.1041 96.1707C92.1041 95.9681 92.0337 95.8051 91.8928 95.6818C91.7562 95.5585 91.5757 95.4969 91.3511 95.4969Z" fill="white"/>
<path d="M94.5437 99.3612V94.7372H95.4288V99.3612H94.5437Z" fill="white"/>
<path d="M97.192 94.7372H98.0508L100.389 97.8815V94.7372H101.222V99.3612H100.435L98.0243 96.1244L98.0309 99.3612H97.192V94.7372Z" fill="white"/>
<path d="M107.507 97.0757C107.507 97.3971 107.452 97.701 107.342 97.9872C107.232 98.2735 107.075 98.5245 106.873 98.7403C106.67 98.9517 106.428 99.1212 106.146 99.2489C105.869 99.3722 105.56 99.4339 105.221 99.4339C104.887 99.4339 104.572 99.3744 104.277 99.2555C103.986 99.1322 103.731 98.9649 103.51 98.7535C103.29 98.5377 103.116 98.2845 102.989 97.9939C102.861 97.7032 102.797 97.3883 102.797 97.0492C102.797 96.7277 102.856 96.4239 102.975 96.1376C103.099 95.847 103.266 95.5938 103.477 95.378C103.693 95.1578 103.949 94.9838 104.244 94.8561C104.539 94.7284 104.86 94.6646 105.208 94.6646C105.582 94.6646 105.935 94.7394 106.265 94.8892C106.6 95.0389 106.879 95.2459 107.104 95.5101C107.003 95.607 106.899 95.7039 106.793 95.8007C106.692 95.8932 106.591 95.9857 106.49 96.0782C106.331 95.8888 106.139 95.7413 105.915 95.6356C105.695 95.5299 105.459 95.4771 105.208 95.4771C104.997 95.4771 104.799 95.5167 104.614 95.596C104.433 95.6752 104.274 95.7853 104.138 95.9262C104.006 96.0672 103.9 96.2345 103.821 96.4283C103.746 96.6177 103.709 96.8246 103.709 97.0492C103.709 97.2694 103.746 97.4764 103.821 97.6702C103.896 97.8595 104.001 98.0269 104.138 98.1722C104.274 98.3131 104.435 98.4254 104.62 98.5091C104.805 98.5928 105.01 98.6346 105.234 98.6346C105.402 98.6346 105.558 98.6104 105.703 98.5619C105.853 98.5091 105.985 98.4364 106.1 98.3439C106.219 98.2471 106.318 98.1326 106.397 98.0005C106.481 97.8683 106.538 97.723 106.569 97.5645H105.195V96.7916H107.507V97.0757Z" fill="white"/>
<path d="M113.583 98.6148C113.825 98.6148 114.052 98.5641 114.263 98.4629C114.475 98.3616 114.66 98.2118 114.818 98.0137C114.92 98.1105 115.016 98.2074 115.109 98.3043C115.206 98.3968 115.303 98.4915 115.4 98.5884C115.285 98.7205 115.157 98.8394 115.016 98.9451C114.876 99.0464 114.724 99.1344 114.561 99.2093C114.402 99.2798 114.237 99.3326 114.065 99.3678C113.894 99.4075 113.722 99.4273 113.55 99.4273C113.211 99.4273 112.894 99.3678 112.599 99.2489C112.304 99.13 112.046 98.9649 111.826 98.7535C111.61 98.5421 111.438 98.2911 111.311 98.0005C111.183 97.7098 111.119 97.3927 111.119 97.0492C111.119 96.7233 111.179 96.4151 111.297 96.1244C111.421 95.8338 111.59 95.5806 111.806 95.3648C112.026 95.149 112.284 94.9794 112.579 94.8561C112.874 94.7284 113.198 94.6646 113.55 94.6646C113.916 94.6646 114.263 94.7394 114.594 94.8892C114.928 95.0389 115.206 95.2459 115.426 95.5101L114.832 96.1046C114.673 95.9064 114.481 95.7523 114.257 95.6422C114.037 95.5321 113.801 95.4771 113.55 95.4771C113.339 95.4771 113.14 95.5167 112.956 95.596C112.771 95.6752 112.61 95.7853 112.473 95.9262C112.337 96.0628 112.229 96.2279 112.15 96.4217C112.07 96.6154 112.031 96.8246 112.031 97.0492C112.031 97.265 112.068 97.4676 112.143 97.657C112.222 97.8463 112.33 98.0137 112.467 98.159C112.603 98.2999 112.766 98.4122 112.956 98.4959C113.145 98.5751 113.354 98.6148 113.583 98.6148Z" fill="white"/>
<path d="M116.894 99.3612V94.7372H117.779V96.6331H119.986V94.7372H120.871V99.3612H119.986V97.4324H117.779V99.3612H116.894Z" fill="white"/>
<path d="M122.626 99.3612V94.7372H126.081V95.5035H123.511V96.6529H125.242V97.3993H123.511V98.595H126.107V99.3612H122.626Z" fill="white"/>
<path d="M127.7 94.7372H128.559L130.897 97.8815V94.7372H131.729V99.3612H130.943L128.532 96.1244L128.539 99.3612H127.7V94.7372Z" fill="white"/>
<path d="M138.015 97.0757C138.015 97.3971 137.96 97.701 137.849 97.9872C137.739 98.2735 137.583 98.5245 137.38 98.7403C137.178 98.9517 136.936 99.1212 136.654 99.2489C136.376 99.3722 136.068 99.4339 135.729 99.4339C135.394 99.4339 135.079 99.3744 134.784 99.2555C134.494 99.1322 134.238 98.9649 134.018 98.7535C133.798 98.5377 133.624 98.2845 133.496 97.9939C133.369 97.7032 133.305 97.3883 133.305 97.0492C133.305 96.7277 133.364 96.4239 133.483 96.1376C133.606 95.847 133.774 95.5938 133.985 95.378C134.201 95.1578 134.456 94.9838 134.751 94.8561C135.046 94.7284 135.368 94.6646 135.716 94.6646C136.09 94.6646 136.442 94.7394 136.773 94.8892C137.107 95.0389 137.387 95.2459 137.612 95.5101C137.51 95.607 137.407 95.7039 137.301 95.8007C137.2 95.8932 137.099 95.9857 136.997 96.0782C136.839 95.8888 136.647 95.7413 136.423 95.6356C136.202 95.5299 135.967 95.4771 135.716 95.4771C135.504 95.4771 135.306 95.5167 135.121 95.596C134.941 95.6752 134.782 95.7853 134.646 95.9262C134.514 96.0672 134.408 96.2345 134.329 96.4283C134.254 96.6177 134.216 96.8246 134.216 97.0492C134.216 97.2694 134.254 97.4764 134.329 97.6702C134.403 97.8595 134.509 98.0269 134.646 98.1722C134.782 98.3131 134.943 98.4254 135.128 98.5091C135.313 98.5928 135.518 98.6346 135.742 98.6346C135.91 98.6346 136.066 98.6104 136.211 98.5619C136.361 98.5091 136.493 98.4364 136.608 98.3439C136.727 98.2471 136.826 98.1326 136.905 98.0005C136.989 97.8683 137.046 97.723 137.077 97.5645H135.703V96.7916H138.015V97.0757Z" fill="white"/>
<path d="M138.92 99.3612L140.79 94.7372H141.814L143.657 99.3612H142.705L142.23 98.1127H140.321L139.845 99.3612H138.92ZM140.592 97.4059H141.965L141.285 95.596L140.592 97.4059Z" fill="white"/>
<path d="M144.953 94.7372H145.812L148.151 97.8815V94.7372H148.983V99.3612H148.197L145.786 96.1244L145.792 99.3612H144.953V94.7372Z" fill="white"/>
<path d="M150.743 94.7372H151.602L153.941 97.8815V94.7372H154.773V99.3612H153.987L151.576 96.1244L151.582 99.3612H150.743V94.7372Z" fill="white"/>
<path d="M160.47 97.3729C160.47 97.6856 160.422 97.9674 160.325 98.2184C160.232 98.4695 160.098 98.6852 159.922 98.8658C159.746 99.0464 159.534 99.1851 159.288 99.282C159.041 99.3789 158.766 99.4273 158.462 99.4273C158.158 99.4273 157.883 99.3811 157.636 99.2886C157.39 99.1917 157.178 99.0552 157.002 98.879C156.831 98.6985 156.696 98.4827 156.599 98.2317C156.507 97.9762 156.461 97.69 156.461 97.3729V94.7372H157.346V97.3729C157.346 97.7516 157.447 98.0533 157.65 98.2779C157.852 98.5025 158.125 98.6148 158.469 98.6148C158.636 98.6148 158.788 98.5862 158.925 98.5289C159.061 98.4673 159.178 98.3836 159.275 98.2779C159.376 98.1678 159.453 98.0357 159.506 97.8815C159.559 97.7274 159.585 97.5579 159.585 97.3729V94.7372H160.47V97.3729Z" fill="white"/>
<path d="M162.155 99.3612V94.7372H164.335C164.56 94.7372 164.767 94.7724 164.956 94.8429C165.15 94.909 165.315 95.0059 165.452 95.1336C165.593 95.2569 165.703 95.4066 165.782 95.5828C165.861 95.7545 165.901 95.9461 165.901 96.1574C165.901 96.4525 165.817 96.7145 165.65 96.9435C165.487 97.1681 165.269 97.3311 164.996 97.4324C165.163 97.7538 165.331 98.0753 165.498 98.3968C165.665 98.7183 165.833 99.0398 166 99.3612H165.016C164.862 99.0574 164.71 98.7579 164.56 98.4629C164.415 98.1634 164.267 97.8617 164.117 97.5579H163.041V99.3612H162.155ZM164.256 95.4969H163.041V96.8378H164.084C164.212 96.8378 164.331 96.8268 164.441 96.8048C164.556 96.7828 164.655 96.7454 164.738 96.6925C164.822 96.6397 164.888 96.5714 164.936 96.4877C164.985 96.3997 165.009 96.294 165.009 96.1707C165.009 95.9681 164.939 95.8051 164.798 95.6818C164.661 95.5585 164.481 95.4969 164.256 95.4969Z" fill="white"/>
</svg>
